# xmcd
#
# Track frame offsets:
#	150
#	27098
#	53343
#	79083
#	99086
#	116373
#	141063
#	157602
#	188337
#	208885
#	229579
#	248833
#	265837
#	289975
#	312771
#
# Disc length: 4461 seconds
#
# Revision: 0
# Processed by: cddbd v1.5.2PL0 Copyright (c) Steve Scherf et al.
# Submitted via: audiograbber 1.83.01
#
DISCID=b1116b0f
DTITLE=uss - Pumping House
DYEAR=1900
DGENRE=
TTITLE0=CRW - I Feel Love
TTITLE1=Habibe - Habibe (klubbheads mix)
TTITLE2=Klubbheads - Pumped Up Funk (SG mix)
TTITLE3=DJ Quicksilver - Planet Love (Dextrous remix)
TTITLE4=Camisra - Let Me Show You (original mix)
TTITLE5=Technotronic - Pump Up The Jam (Rollercoaster remix)
TTITLE6=Camisra - Let Me Show You (Klubbheads mix)
TTITLE7=Triples - Whoop (Klubbheads mix)
TTITLE8=Groove Gangsters - Funky Beats
TTITLE9=DJ Quicksilver - Planet Love (Untidy mix)
TTITLE10=Klubbheads - Pumped Up The Funk (Freakin Klubb mix)
TTITLE11=Gant - Sound Boy Burial (187 Lockdown mix)
TTITLE12=Abuna E - Watch Me (Beat Bitches mix)
TTITLE13=Storm - Storm (Rollercoaster's Pumped Up mix)
TTITLE14=Serious Danger - Deeper (part 2)
EXTD=
EXTT0=
EXTT1=
EXTT2=
EXTT3=
EXTT4=
EXTT5=
EXTT6=
EXTT7=
EXTT8=
EXTT9=
EXTT10=
EXTT11=
EXTT12=
EXTT13=
EXTT14=
PLAYORDER=
